<svg width="450" height="450" viewBox="0 0 450 450" fill="none" xmlns="http://www.w3.org/2000/svg">
<rect width="450" height="450" rx="112.5" fill="#0A0A0A"/>
<path d="M213.442 344.835C198.341 344.835 185.118 340.84 173.772 332.85C162.426 324.86 153.557 313.714 147.165 299.412C140.853 285.11 137.697 268.45 137.697 249.434C137.697 230.498 140.853 213.918 147.165 199.696C153.557 185.394 162.466 174.287 173.892 166.377C185.317 158.387 198.621 154.392 213.802 154.392C224.988 154.392 234.297 156.39 241.727 160.385C249.158 164.3 255.111 169.174 259.585 175.007C264.059 180.839 267.535 186.512 270.012 192.025H271.93V95.5454H293.383V341H272.529V306.843H270.012C267.535 312.436 264.02 318.188 259.465 324.101C254.911 329.934 248.878 334.848 241.368 338.843C233.937 342.838 224.629 344.835 213.442 344.835ZM215.959 325.3C227.865 325.3 238.012 322.064 246.401 315.592C254.791 309.04 261.183 300.051 265.578 288.625C270.052 277.119 272.289 263.936 272.289 249.074C272.289 234.373 270.092 221.389 265.697 210.123C261.303 198.777 254.911 189.908 246.521 183.516C238.132 177.044 227.944 173.808 215.959 173.808C203.655 173.808 193.268 177.164 184.798 183.876C176.409 190.507 170.017 199.496 165.622 210.842C161.307 222.188 159.15 234.932 159.15 249.074C159.15 263.377 161.347 276.281 165.742 287.786C170.136 299.292 176.528 308.441 184.918 315.232C193.387 321.944 203.735 325.3 215.959 325.3Z" fill="white"/>
</svg>
